  0
SECTION
  2
HEADER
  9
$ACADVER
  1
AC1009
  9
$EXTMIN
 10
-125.99398677
 20
-164.69942175
 30
0.0
  9
$EXTMAX
 10
125.99398677
 20
249.69219952
 30
0.0
  0
ENDSEC
  0
SECTION
  2
TABLES
  0
TABLE
  2
LAYER
 70
1
 0
LAYER
 2
0
 70
0
 62
7
 6
CONTINUOUS
 0
ENDTAB
 0
ENDSEC
  0
SECTION
  2
ENTITIES
  0
POLYLINE
  8
0
 62
256
 66
   1
 39
0.000000
 70
    0
  0
VERTEX
  8
0
 10
38.99170668
 20
-100.55162723
  0
VERTEX
  8
0
 10
38.99170668
 20
-45.19320781
  0
VERTEX
  8
0
 10
38.99170668
 20
71.31818212
  0
VERTEX
  8
0
 10
-41.00829332
 20
71.31818212
  0
VERTEX
  8
0
 10
-41.00829332
 20
-100.55162723
  0
SEQEND
  0
POLYLINE
  8
0
 62
256
 66
   1
 39
0.000000
 70
    1
  0
VERTEX
  8
0
 10
83.54905797
 20
33.76789509
  0
VERTEX
  8
0
 10
64.02226698
 20
20.44459864
 42
-0.41421356
  0
VERTEX
  8
0
 10
61.24296284
 20
20.96944955
 42
-0.41421356
  0
VERTEX
  8
0
 10
61.76781374
 20
23.74875369
  0
VERTEX
  8
0
 10
82.38170245
 20
37.81378621
 42
-0.29949756
  0
VERTEX
  8
0
 10
84.58014840
 20
37.85064005
  0
VERTEX
  8
0
 10
106.75569534
 20
23.78560753
 42
-0.41421356
  0
VERTEX
  8
0
 10
107.37340738
 20
21.02545684
 42
-0.41421356
  0
VERTEX
  8
0
 10
104.61325668
 20
20.40774480
  0
VERTEX
  8
0
 10
83.54905797
 20
33.76789509
  0
SEQEND
  0
POLYLINE
  8
0
 62
256
 66
   1
 39
0.000000
 70
    1
  0
VERTEX
  8
0
 10
1.04315807
 20
218.28582528
  0
VERTEX
  8
0
 10
1.68933283
 20
218.26556347
  0
VERTEX
  8
0
 10
2.33205022
 20
218.20476980
  0
VERTEX
  8
0
 10
2.96784675
 20
218.10344353
  0
VERTEX
  8
0
 10
3.59325893
 20
217.96158389
  0
VERTEX
  8
0
 10
4.20482329
 20
217.77919015
  0
VERTEX
  8
0
 10
4.79907631
 20
217.55626155
  0
VERTEX
  8
0
 10
5.37255453
 20
217.29279735
  0
VERTEX
  8
0
 10
5.92179445
 20
216.98879679
  0
VERTEX
  8
0
 10
45.18255709
 20
193.23451964
  0
VERTEX
  8
0
 10
45.52597486
 20
193.01429014
  0
VERTEX
  8
0
 10
45.85055474
 20
192.78085868
  0
VERTEX
  8
0
 10
46.15583891
 20
192.53494837
  0
VERTEX
  8
0
 10
46.44136951
 20
192.27728229
  0
VERTEX
  8
0
 10
46.70668873
 20
192.00858356
  0
VERTEX
  8
0
 10
46.95133870
 20
191.72957526
  0
VERTEX
  8
0
 10
47.17486160
 20
191.44098050
  0
VERTEX
  8
0
 10
47.37679958
 20
191.14352238
  0
VERTEX
  8
0
 10
47.55669481
 20
190.83792399
  0
VERTEX
  8
0
 10
47.71408944
 20
190.52490843
  0
VERTEX
  8
0
 10
47.84852563
 20
190.20519881
  0
VERTEX
  8
0
 10
47.95954556
 20
189.87951821
  0
VERTEX
  8
0
 10
48.04669137
 20
189.54858975
  0
VERTEX
  8
0
 10
48.10950522
 20
189.21313652
  0
VERTEX
  8
0
 10
48.14752928
 20
188.87388161
  0
VERTEX
  8
0
 10
48.16030571
 20
188.53154813
  0
VERTEX
  8
0
 10
48.16030571
 20
188.21899186
  0
VERTEX
  8
0
 10
40.30392072
 20
188.21899186
  0
VERTEX
  8
0
 10
40.30392072
 20
188.53154813
  0
VERTEX
  8
0
 10
1.04315807
 20
212.28582528
  0
VERTEX
  8
0
 10
-38.21760457
 20
188.53154813
  0
VERTEX
  8
0
 10
-38.21760457
 20
188.21899186
  0
VERTEX
  8
0
 10
-46.07398956
 20
188.21899186
  0
VERTEX
  8
0
 10
-46.07398956
 20
188.53154813
  0
VERTEX
  8
0
 10
-46.06121313
 20
188.87388161
  0
VERTEX
  8
0
 10
-46.02318907
 20
189.21313652
  0
VERTEX
  8
0
 10
-45.96037522
 20
189.54858975
  0
VERTEX
  8
0
 10
-45.87322941
 20
189.87951821
  0
VERTEX
  8
0
 10
-45.76220949
 20
190.20519881
  0
VERTEX
  8
0
 10
-45.62777329
 20
190.52490843
  0
VERTEX
  8
0
 10
-45.47037866
 20
190.83792399
  0
VERTEX
  8
0
 10
-45.29048343
 20
191.14352238
  0
VERTEX
  8
0
 10
-45.08854545
 20
191.44098050
  0
VERTEX
  8
0
 10
-44.86502255
 20
191.72957526
  0
VERTEX
  8
0
 10
-44.62037258
 20
192.00858356
  0
VERTEX
  8
0
 10
-44.35505337
 20
192.27728229
  0
VERTEX
  8
0
 10
-44.06952276
 20
192.53494837
  0
VERTEX
  8
0
 10
-43.76423859
 20
192.78085868
  0
VERTEX
  8
0
 10
-43.43965871
 20
193.01429014
  0
VERTEX
  8
0
 10
-43.09624094
 20
193.23451964
  0
VERTEX
  8
0
 10
-3.83547830
 20
216.98879679
  0
VERTEX
  8
0
 10
-3.28623838
 20
217.29279735
  0
VERTEX
  8
0
 10
-2.71276017
 20
217.55626155
  0
VERTEX
  8
0
 10
-2.11850714
 20
217.77919015
  0
VERTEX
  8
0
 10
-1.50694278
 20
217.96158389
  0
VERTEX
  8
0
 10
-0.88153060
 20
218.10344353
  0
VERTEX
  8
0
 10
-0.24573407
 20
218.20476980
  0
VERTEX
  8
0
 10
0.39698332
 20
218.26556347
  0
VERTEX
  8
0
 10
1.04315807
 20
218.28582528
  0
SEQEND
  0
POLYLINE
  8
0
 62
256
 66
   1
 39
0.000000
 70
    1
  0
VERTEX
  8
0
 10
1.04315807
 20
192.96876674
  0
VERTEX
  8
0
 10
1.68933283
 20
192.94850493
  0
VERTEX
  8
0
 10
2.33205022
 20
192.88771127
  0
VERTEX
  8
0
 10
2.96784675
 20
192.78638499
  0
VERTEX
  8
0
 10
3.59325893
 20
192.64452535
  0
VERTEX
  8
0
 10
4.20482329
 20
192.46213161
  0
VERTEX
  8
0
 10
4.79907631
 20
192.23920302
  0
VERTEX
  8
0
 10
5.37255453
 20
191.97573881
  0
VERTEX
  8
0
 10
5.92179445
 20
191.67173825
  0
VERTEX
  8
0
 10
45.18255709
 20
167.91746111
  0
VERTEX
  8
0
 10
45.52597486
 20
167.69723161
  0
VERTEX
  8
0
 10
45.85055474
 20
167.46380015
  0
VERTEX
  8
0
 10
46.15583891
 20
167.21788983
  0
VERTEX
  8
0
 10
46.44136951
 20
166.96022376
  0
VERTEX
  8
0
 10
46.70668873
 20
166.69152502
  0
VERTEX
  8
0
 10
46.95133870
 20
166.41251672
  0
VERTEX
  8
0
 10
47.17486160
 20
166.12392196
  0
VERTEX
  8
0
 10
47.37679958
 20
165.82646384
  0
VERTEX
  8
0
 10
47.55669481
 20
165.52086545
  0
VERTEX
  8
0
 10
47.71408944
 20
165.20784989
  0
VERTEX
  8
0
 10
47.84852563
 20
164.88814027
  0
VERTEX
  8
0
 10
47.95954556
 20
164.56245968
  0
VERTEX
  8
0
 10
48.04669137
 20
164.23153121
  0
VERTEX
  8
0
 10
48.10950522
 20
163.89607798
  0
VERTEX
  8
0
 10
48.14752928
 20
163.55682308
  0
VERTEX
  8
0
 10
48.16030571
 20
163.21448960
  0
VERTEX
  8
0
 10
48.16030571
 20
162.90193332
  0
VERTEX
  8
0
 10
40.30392072
 20
162.90193332
  0
VERTEX
  8
0
 10
40.30392072
 20
163.21448960
  0
VERTEX
  8
0
 10
1.04315807
 20
186.96876674
  0
VERTEX
  8
0
 10
-38.21760457
 20
163.21448960
  0
VERTEX
  8
0
 10
-38.21760457
 20
162.90193332
  0
VERTEX
  8
0
 10
-46.07398956
 20
162.90193332
  0
VERTEX
  8
0
 10
-46.07398956
 20
163.21448960
  0
VERTEX
  8
0
 10
-46.06121313
 20
163.55682308
  0
VERTEX
  8
0
 10
-46.02318907
 20
163.89607798
  0
VERTEX
  8
0
 10
-45.96037522
 20
164.23153121
  0
VERTEX
  8
0
 10
-45.87322941
 20
164.56245968
  0
VERTEX
  8
0
 10
-45.76220949
 20
164.88814027
  0
VERTEX
  8
0
 10
-45.62777329
 20
165.20784989
  0
VERTEX
  8
0
 10
-45.47037866
 20
165.52086545
  0
VERTEX
  8
0
 10
-45.29048343
 20
165.82646384
  0
VERTEX
  8
0
 10
-45.08854545
 20
166.12392196
  0
VERTEX
  8
0
 10
-44.86502255
 20
166.41251672
  0
VERTEX
  8
0
 10
-44.62037258
 20
166.69152502
  0
VERTEX
  8
0
 10
-44.35505337
 20
166.96022376
  0
VERTEX
  8
0
 10
-44.06952276
 20
167.21788983
  0
VERTEX
  8
0
 10
-43.76423859
 20
167.46380015
  0
VERTEX
  8
0
 10
-43.43965871
 20
167.69723161
  0
VERTEX
  8
0
 10
-43.09624094
 20
167.91746111
  0
VERTEX
  8
0
 10
-3.83547830
 20
191.67173825
  0
VERTEX
  8
0
 10
-3.28623838
 20
191.97573881
  0
VERTEX
  8
0
 10
-2.71276017
 20
192.23920302
  0
VERTEX
  8
0
 10
-2.11850714
 20
192.46213161
  0
VERTEX
  8
0
 10
-1.50694278
 20
192.64452535
  0
VERTEX
  8
0
 10
-0.88153060
 20
192.78638499
  0
VERTEX
  8
0
 10
-0.24573407
 20
192.88771127
  0
VERTEX
  8
0
 10
0.39698332
 20
192.94850493
  0
VERTEX
  8
0
 10
1.04315807
 20
192.96876674
  0
SEQEND
  0
POLYLINE
  8
0
 62
256
 66
   1
 39
0.000000
 70
    1
  0
VERTEX
  8
0
 10
-81.46274182
 20
33.76789509
  0
VERTEX
  8
0
 10
-61.93595083
 20
20.44459864
 42
0.41421356
  0
VERTEX
  8
0
 10
-59.15664669
 20
20.96944955
 42
0.41421356
  0
VERTEX
  8
0
 10
-59.68149759
 20
23.74875369
  0
VERTEX
  8
0
 10
-80.29538630
 20
37.81378621
 42
0.29949756
  0
VERTEX
  8
0
 10
-82.49383225
 20
37.85064005
  0
VERTEX
  8
0
 10
-104.66937919
 20
23.78560753
 42
0.41421356
  0
VERTEX
  8
0
 10
-105.28709123
 20
21.02545684
 42
0.41421356
  0
VERTEX
  8
0
 10
-102.52694053
 20
20.40774480
  0
VERTEX
  8
0
 10
-81.46274182
 20
33.76789509
  0
SEQEND
  0
POLYLINE
  8
0
 62
256
 66
   1
 39
0.000000
 70
    1
  0
VERTEX
  8
0
 10
1.01857242
 20
249.69219952
  0
VERTEX
  8
0
 10
0.99398677
 20
249.69219952
  0
VERTEX
  8
0
 10
-72.11342792
 20
249.69219952
  0
VERTEX
  8
0
 10
-72.73094633
 20
249.67658520
  0
VERTEX
  8
0
 10
-73.34035822
 20
249.63024488
  0
VERTEX
  8
0
 10
-73.94090959
 20
249.55393254
  0
VERTEX
  8
0
 10
-74.53184648
 20
249.44840217
  0
VERTEX
  8
0
 10
-75.11241489
 20
249.31440776
  0
VERTEX
  8
0
 10
-75.68186085
 20
249.15270327
  0
VERTEX
  8
0
 10
-76.23943037
 20
248.96404271
  0
VERTEX
  8
0
 10
-76.78436947
 20
248.74918004
  0
VERTEX
  8
0
 10
-77.31592417
 20
248.50886925
  0
VERTEX
  8
0
 10
-77.83334049
 20
248.24386432
  0
VERTEX
  8
0
 10
-78.33586444
 20
247.95491924
  0
VERTEX
  8
0
 10
-78.82274204
 20
247.64278799
  0
VERTEX
  8
0
 10
-79.29321930
 20
247.30822454
  0
VERTEX
  8
0
 10
-79.74654226
 20
246.95198289
  0
VERTEX
  8
0
 10
-80.18195692
 20
246.57481702
  0
VERTEX
  8
0
 10
-80.59870930
 20
246.17748090
  0
VERTEX
  8
0
 10
-80.99604542
 20
245.76072852
  0
VERTEX
  8
0
 10
-81.37321130
 20
245.32531386
  0
VERTEX
  8
0
 10
-81.72945295
 20
244.87199090
  0
VERTEX
  8
0
 10
-82.06401639
 20
244.40151363
  0
VERTEX
  8
0
 10
-82.37614764
 20
243.91463603
  0
VERTEX
  8
0
 10
-82.66509273
 20
243.41211208
  0
VERTEX
  8
0
 10
-82.93009765
 20
242.89469577
  0
VERTEX
  8
0
 10
-83.17040844
 20
242.36314107
  0
VERTEX
  8
0
 10
-83.38527111
 20
241.81820197
  0
VERTEX
  8
0
 10
-83.57393168
 20
241.26063245
  0
VERTEX
  8
0
 10
-83.73563616
 20
240.69118649
  0
VERTEX
  8
0
 10
-83.86963058
 20
240.11061807
  0
VERTEX
  8
0
 10
-83.97516094
 20
239.51968119
  0
VERTEX
  8
0
 10
-84.05147328
 20
238.91912981
  0
VERTEX
  8
0
 10
-84.09781360
 20
238.30971793
  0
VERTEX
  8
0
 10
-84.11342792
 20
237.69219952
  0
VERTEX
  8
0
 10
-84.11342792
 20
81.62040275
  0
VERTEX
  8
0
 10
-84.14002056
 20
80.82073586
  0
VERTEX
  8
0
 10
-84.21895708
 20
80.03088763
  0
VERTEX
  8
0
 10
-84.34897545
 20
79.25304400
  0
VERTEX
  8
0
 10
-84.52881361
 20
78.48939091
  0
VERTEX
  8
0
 10
-84.75720950
 20
77.74211431
  0
VERTEX
  8
0
 10
-85.03290108
 20
77.01340012
  0
VERTEX
  8
0
 10
-85.35462629
 20
76.30543429
  0
VERTEX
  8
0
 10
-85.72112308
 20
75.62040275
  0
VERTEX
  8
0
 10
-86.13112939
 20
74.96049146
  0
VERTEX
  8
0
 10
-86.58338318
 20
74.32788634
  0
VERTEX
  8
0
 10
-87.07662239
 20
73.72477333
  0
VERTEX
  8
0
 10
-87.60958497
 20
73.15333838
  0
VERTEX
  8
0
 10
-88.18100887
 20
72.61576742
  0
VERTEX
  8
0
 10
-88.78963203
 20
72.11424640
  0
VERTEX
  8
0
 10
-89.43419240
 20
71.65096125
  0
VERTEX
  8
0
 10
-90.11342792
 20
71.22809791
  0
VERTEX
  8
0
 10
-123.95684193
 20
48.73982648
  0
VERTEX
  8
0
 10
-123.94253538
 20
4.34696229
  0
VERTEX
  8
0
 10
-111.43403460
 20
4.34696229
  0
VERTEX
  8
0
 10
-52.42366995
 20
4.34696229
  0
VERTEX
  8
0
 10
-43.95003149
 20
4.34696229
  0
VERTEX
  8
0
 10
-44.00601323
 20
48.73982648
  0
VERTEX
  8
0
 10
-44.00601323
 20
67.69219952
  0
VERTEX
  8
0
 10
-43.99690488
 20
68.05241859
  0
VERTEX
  8
0
 10
-43.96987302
 20
68.40790886
  0
VERTEX
  8
0
 10
-43.92535749
 20
68.75823049
  0
VERTEX
  8
0
 10
-43.86379811
 20
69.10294368
  0
VERTEX
  8
0
 10
-43.78563470
 20
69.44160859
  0
VERTEX
  8
0
 10
-43.69130709
 20
69.77378539
  0
VERTEX
  8
0
 10
-43.58125509
 20
70.09903428
  0
VERTEX
  8
0
 10
-43.45591854
 20
70.41691542
  0
VERTEX
  8
0
 10
-43.31573724
 20
70.72698900
  0
VERTEX
  8
0
 10
-43.16115104
 20
71.02881518
  0
VERTEX
  8
0
 10
-42.99259974
 20
71.32195415
  0
VERTEX
  8
0
 10
-42.81052317
 20
71.60596609
  0
VERTEX
  8
0
 10
-42.61536116
 20
71.88041116
  0
VERTEX
  8
0
 10
-42.40755353
 20
72.14484955
  0
VERTEX
  8
0
 10
-42.18754011
 20
72.39884144
  0
VERTEX
  8
0
 10
-41.95576070
 20
72.64194699
  0
VERTEX
  8
0
 10
-41.71265515
 20
72.87372639
  0
VERTEX
  8
0
 10
-41.45866326
 20
73.09373982
  0
VERTEX
  8
0
 10
-41.19422487
 20
73.30154745
  0
VERTEX
  8
0
 10
-40.91977980
 20
73.49670946
  0
VERTEX
  8
0
 10
-40.63576787
 20
73.67878603
  0
VERTEX
  8
0
 10
-40.34262890
 20
73.84733732
  0
VERTEX
  8
0
 10
-40.04080271
 20
74.00192353
  0
VERTEX
  8
0
 10
-39.73072914
 20
74.14210482
  0
VERTEX
  8
0
 10
-39.41284799
 20
74.26744138
  0
VERTEX
  8
0
 10
-39.08759911
 20
74.37749338
  0
VERTEX
  8
0
 10
-38.75542230
 20
74.47182099
  0
VERTEX
  8
0
 10
-38.41675739
 20
74.54998440
  0
VERTEX
  8
0
 10
-38.07204421
 20
74.61154378
  0
VERTEX
  8
0
 10
-37.72172257
 20
74.65605931
  0
VERTEX
  8
0
 10
-37.36623231
 20
74.68309117
  0
VERTEX
  8
0
 10
-37.00601323
 20
74.69219952
  0
VERTEX
  8
0
 10
0.99398677
 20
74.69219952
  0
VERTEX
  8
0
 10
1.01857242
 20
74.69219952
  0
VERTEX
  8
0
 10
1.04315807
 20
74.69219952
  0
VERTEX
  8
0
 10
39.04315807
 20
74.69219952
  0
VERTEX
  8
0
 10
39.40337715
 20
74.68309117
  0
VERTEX
  8
0
 10
39.75886741
 20
74.65605931
  0
VERTEX
  8
0
 10
40.10918905
 20
74.61154378
  0
VERTEX
  8
0
 10
40.45390223
 20
74.54998440
  0
VERTEX
  8
0
 10
40.79256714
 20
74.47182099
  0
VERTEX
  8
0
 10
41.12474395
 20
74.37749338
  0
VERTEX
  8
0
 10
41.44999283
 20
74.26744138
  0
VERTEX
  8
0
 10
41.76787398
 20
74.14210482
  0
VERTEX
  8
0
 10
42.07794755
 20
74.00192353
  0
VERTEX
  8
0
 10
42.37977374
 20
73.84733732
  0
VERTEX
  8
0
 10
42.67291271
 20
73.67878603
  0
VERTEX
  8
0
 10
42.95692464
 20
73.49670946
  0
VERTEX
  8
0
 10
43.23136971
 20
73.30154745
  0
VERTEX
  8
0
 10
43.49580810
 20
73.09373982
  0
VERTEX
  8
0
 10
43.74979999
 20
72.87372639
  0
VERTEX
  8
0
 10
43.99290554
 20
72.64194699
  0
VERTEX
  8
0
 10
44.22468495
 20
72.39884144
  0
VERTEX
  8
0
 10
44.44469837
 20
72.14484955
  0
VERTEX
  8
0
 10
44.65250600
 20
71.88041116
  0
VERTEX
  8
0
 10
44.84766801
 20
71.60596609
  0
VERTEX
  8
0
 10
45.02974458
 20
71.32195415
  0
VERTEX
  8
0
 10
45.19829587
 20
71.02881518
  0
VERTEX
  8
0
 10
45.35288208
 20
70.72698900
  0
VERTEX
  8
0
 10
45.49306338
 20
70.41691542
  0
VERTEX
  8
0
 10
45.61839993
 20
70.09903428
  0
VERTEX
  8
0
 10
45.72845193
 20
69.77378539
  0
VERTEX
  8
0
 10
45.82277954
 20
69.44160859
  0
VERTEX
  8
0
 10
45.90094295
 20
69.10294368
  0
VERTEX
  8
0
 10
45.96250233
 20
68.75823049
  0
VERTEX
  8
0
 10
46.00701786
 20
68.40790886
  0
VERTEX
  8
0
 10
46.03404972
 20
68.05241859
  0
VERTEX
  8
0
 10
46.04315807
 20
67.69219952
  0
VERTEX
  8
0
 10
46.04315807
 20
48.73982648
  0
VERTEX
  8
0
 10
45.98717633
 20
4.34696229
  0
VERTEX
  8
0
 10
54.46081479
 20
4.34696229
  0
VERTEX
  8
0
 10
113.47117944
 20
4.34696229
  0
VERTEX
  8
0
 10
125.97968022
 20
4.34696229
  0
VERTEX
  8
0
 10
125.99398677
 20
48.73982648
  0
VERTEX
  8
0
 10
92.30030153
 20
71.22809791
  0
VERTEX
  8
0
 10
91.62106601
 20
71.65096125
  0
VERTEX
  8
0
 10
90.97650564
 20
72.11424640
  0
VERTEX
  8
0
 10
90.36788248
 20
72.61576742
  0
VERTEX
  8
0
 10
89.79645858
 20
73.15333838
  0
VERTEX
  8
0
 10
89.26349600
 20
73.72477333
  0
VERTEX
  8
0
 10
88.77025679
 20
74.32788634
  0
VERTEX
  8
0
 10
88.31800300
 20
74.96049146
  0
VERTEX
  8
0
 10
87.90799669
 20
75.62040275
  0
VERTEX
  8
0
 10
87.54149990
 20
76.30543429
  0
VERTEX
  8
0
 10
87.21977469
 20
77.01340012
  0
VERTEX
  8
0
 10
86.94408311
 20
77.74211431
  0
VERTEX
  8
0
 10
86.71568722
 20
78.48939091
  0
VERTEX
  8
0
 10
86.53584906
 20
79.25304400
  0
VERTEX
  8
0
 10
86.40583069
 20
80.03088763
  0
VERTEX
  8
0
 10
86.32689417
 20
80.82073586
  0
VERTEX
  8
0
 10
86.30030153
 20
81.62040275
  0
VERTEX
  8
0
 10
86.30030153
 20
237.69219952
  0
VERTEX
  8
0
 10
86.28468721
 20
238.30971793
  0
VERTEX
  8
0
 10
86.23834689
 20
238.91912981
  0
VERTEX
  8
0
 10
86.16203455
 20
239.51968119
  0
VERTEX
  8
0
 10
86.05650418
 20
240.11061807
  0
VERTEX
  8
0
 10
85.92250977
 20
240.69118649
  0
VERTEX
  8
0
 10
85.76080529
 20
241.26063245
  0
VERTEX
  8
0
 10
85.57214472
 20
241.81820197
  0
VERTEX
  8
0
 10
85.35728205
 20
242.36314107
  0
VERTEX
  8
0
 10
85.11697126
 20
242.89469577
  0
VERTEX
  8
0
 10
84.85196634
 20
243.41211208
  0
VERTEX
  8
0
 10
84.56302125
 20
243.91463603
  0
VERTEX
  8
0
 10
84.25089000
 20
244.40151363
  0
VERTEX
  8
0
 10
83.91632656
 20
244.87199090
  0
VERTEX
  8
0
 10
83.56008491
 20
245.32531386
  0
VERTEX
  8
0
 10
83.18291903
 20
245.76072852
  0
VERTEX
  8
0
 10
82.78558291
 20
246.17748090
  0
VERTEX
  8
0
 10
82.36883053
 20
246.57481702
  0
VERTEX
  8
0
 10
81.93341587
 20
246.95198289
  0
VERTEX
  8
0
 10
81.48009291
 20
247.30822454
  0
VERTEX
  8
0
 10
81.00961565
 20
247.64278799
  0
VERTEX
  8
0
 10
80.52273804
 20
247.95491924
  0
VERTEX
  8
0
 10
80.02021410
 20
248.24386432
  0
VERTEX
  8
0
 10
79.50279778
 20
248.50886925
  0
VERTEX
  8
0
 10
78.97124308
 20
248.74918004
  0
VERTEX
  8
0
 10
78.42630398
 20
248.96404271
  0
VERTEX
  8
0
 10
77.86873446
 20
249.15270327
  0
VERTEX
  8
0
 10
77.29928850
 20
249.31440776
  0
VERTEX
  8
0
 10
76.71872009
 20
249.44840217
  0
VERTEX
  8
0
 10
76.12778320
 20
249.55393254
  0
VERTEX
  8
0
 10
75.52723183
 20
249.63024488
  0
VERTEX
  8
0
 10
74.91781994
 20
249.67658520
  0
VERTEX
  8
0
 10
74.30030153
 20
249.69219952
  0
VERTEX
  8
0
 10
1.04315807
 20
249.69219952
  0
VERTEX
  8
0
 10
1.01857242
 20
249.69219952
  0
SEQEND
  0
CIRCLE
  8
0
 62
256
 10
-79.836420
 20
74.692200
 40
0.150000
  0
CIRCLE
  8
0
 62
256
 10
-107.283414
 20
48.739827
 40
0.150000
  0
CIRCLE
  8
0
 62
256
 10
73.101369
 20
74.692200
 40
0.150000
  0
CIRCLE
  8
0
 62
256
 10
100.176717
 20
48.739827
 40
0.150000
  0
CIRCLE
  8
0
 62
256
 10
-107.707455
 20
-162.977973
 40
0.150000
  0
CIRCLE
  8
0
 62
256
 10
95.626613
 20
-162.977973
 40
0.150000
  0
POLYLINE
  8
0
 62
256
 66
   1
 39
0.000000
 70
    1
  0
VERTEX
  8
0
 10
78.36436964
 20
-85.35981501
  0
VERTEX
  8
0
 10
78.36436964
 20
-115.05266144
  0
VERTEX
  8
0
 10
103.35090141
 20
-97.54950986
  0
VERTEX
  8
0
 10
81.80001776
 20
-106.30108565
  0
VERTEX
  8
0
 10
78.36436964
 20
-85.35981501
  0
SEQEND
  0
CIRCLE
  8
0
 62
256
 10
81.018572
 20
232.691453
 40
1.546513
  0
CIRCLE
  8
0
 62
256
 10
56.518572
 20
232.691453
 40
1.546513
  0
CIRCLE
  8
0
 62
256
 10
81.018572
 20
202.691453
 40
1.546513
  0
CIRCLE
  8
0
 62
256
 10
56.518572
 20
202.691453
 40
1.546513
  0
CIRCLE
  8
0
 62
256
 10
-78.981428
 20
232.691453
 40
1.546513
  0
CIRCLE
  8
0
 62
256
 10
-54.481428
 20
232.691453
 40
1.546513
  0
CIRCLE
  8
0
 62
256
 10
-78.981428
 20
202.691453
 40
1.546513
  0
CIRCLE
  8
0
 62
256
 10
-54.481428
 20
202.691453
 40
1.546513
  0
POLYLINE
  8
0
 62
256
 66
   1
 39
0.000000
 70
    0
  0
VERTEX
  8
0
 10
-88.56406883
 20
249.69219952
  0
VERTEX
  8
0
 10
71.43593117
 20
249.69219952
  0
SEQEND
  0
CIRCLE
  8
0
 62
256
 10
-78.981428
 20
99.630568
 40
1.546513
  0
CIRCLE
  8
0
 62
256
 10
-54.481428
 20
99.630568
 40
1.546513
  0
CIRCLE
  8
0
 62
256
 10
-78.981428
 20
129.630568
 40
1.546513
  0
CIRCLE
  8
0
 62
256
 10
-54.481428
 20
129.630568
 40
1.546513
  0
CIRCLE
  8
0
 62
256
 10
81.018572
 20
100.162937
 40
1.546513
  0
CIRCLE
  8
0
 62
256
 10
56.518572
 20
100.162937
 40
1.546513
  0
CIRCLE
  8
0
 62
256
 10
81.018572
 20
130.162937
 40
1.546513
  0
CIRCLE
  8
0
 62
256
 10
56.518572
 20
130.162937
 40
1.546513
  0
POLYLINE
  8
0
 62
256
 66
   1
 39
0.000000
 70
    1
  0
VERTEX
  8
0
 10
1.04315807
 20
167.58932601
  0
VERTEX
  8
0
 10
1.68933283
 20
167.56906420
  0
VERTEX
  8
0
 10
2.33205022
 20
167.50827054
  0
VERTEX
  8
0
 10
2.96784675
 20
167.40694426
  0
VERTEX
  8
0
 10
3.59325893
 20
167.26508462
  0
VERTEX
  8
0
 10
4.20482329
 20
167.08269088
  0
VERTEX
  8
0
 10
4.79907631
 20
166.85976229
  0
VERTEX
  8
0
 10
5.37255453
 20
166.59629808
  0
VERTEX
  8
0
 10
5.92179445
 20
166.29229752
  0
VERTEX
  8
0
 10
45.18255709
 20
142.53802038
  0
VERTEX
  8
0
 10
45.52597486
 20
142.31779088
  0
VERTEX
  8
0
 10
45.85055474
 20
142.08435942
  0
VERTEX
  8
0
 10
46.15583891
 20
141.83844910
  0
VERTEX
  8
0
 10
46.44136951
 20
141.58078303
  0
VERTEX
  8
0
 10
46.70668873
 20
141.31208429
  0
VERTEX
  8
0
 10
46.95133870
 20
141.03307599
  0
VERTEX
  8
0
 10
47.17486160
 20
140.74448123
  0
VERTEX
  8
0
 10
47.37679958
 20
140.44702311
  0
VERTEX
  8
0
 10
47.55669481
 20
140.14142472
  0
VERTEX
  8
0
 10
47.71408944
 20
139.82840916
  0
VERTEX
  8
0
 10
47.84852563
 20
139.50869954
  0
VERTEX
  8
0
 10
47.95954556
 20
139.18301895
  0
VERTEX
  8
0
 10
48.04669137
 20
138.85209048
  0
VERTEX
  8
0
 10
48.10950522
 20
138.51663725
  0
VERTEX
  8
0
 10
48.14752928
 20
138.17738235
  0
VERTEX
  8
0
 10
48.16030571
 20
137.83504887
  0
VERTEX
  8
0
 10
48.16030571
 20
137.52249259
  0
VERTEX
  8
0
 10
40.30392072
 20
137.52249259
  0
VERTEX
  8
0
 10
40.30392072
 20
137.83504887
  0
VERTEX
  8
0
 10
1.04315807
 20
161.58932601
  0
VERTEX
  8
0
 10
-38.21760457
 20
137.83504887
  0
VERTEX
  8
0
 10
-38.21760457
 20
137.52249259
  0
VERTEX
  8
0
 10
-46.07398956
 20
137.52249259
  0
VERTEX
  8
0
 10
-46.07398956
 20
137.83504887
  0
VERTEX
  8
0
 10
-46.06121313
 20
138.17738235
  0
VERTEX
  8
0
 10
-46.02318907
 20
138.51663725
  0
VERTEX
  8
0
 10
-45.96037522
 20
138.85209048
  0
VERTEX
  8
0
 10
-45.87322941
 20
139.18301895
  0
VERTEX
  8
0
 10
-45.76220949
 20
139.50869954
  0
VERTEX
  8
0
 10
-45.62777329
 20
139.82840916
  0
VERTEX
  8
0
 10
-45.47037866
 20
140.14142472
  0
VERTEX
  8
0
 10
-45.29048343
 20
140.44702311
  0
VERTEX
  8
0
 10
-45.08854545
 20
140.74448123
  0
VERTEX
  8
0
 10
-44.86502255
 20
141.03307599
  0
VERTEX
  8
0
 10
-44.62037258
 20
141.31208429
  0
VERTEX
  8
0
 10
-44.35505337
 20
141.58078303
  0
VERTEX
  8
0
 10
-44.06952276
 20
141.83844910
  0
VERTEX
  8
0
 10
-43.76423859
 20
142.08435942
  0
VERTEX
  8
0
 10
-43.43965871
 20
142.31779088
  0
VERTEX
  8
0
 10
-43.09624094
 20
142.53802038
  0
VERTEX
  8
0
 10
-3.83547830
 20
166.29229752
  0
VERTEX
  8
0
 10
-3.28623838
 20
166.59629808
  0
VERTEX
  8
0
 10
-2.71276017
 20
166.85976229
  0
VERTEX
  8
0
 10
-2.11850714
 20
167.08269088
  0
VERTEX
  8
0
 10
-1.50694278
 20
167.26508462
  0
VERTEX
  8
0
 10
-0.88153060
 20
167.40694426
  0
VERTEX
  8
0
 10
-0.24573407
 20
167.50827054
  0
VERTEX
  8
0
 10
0.39698332
 20
167.56906420
  0
VERTEX
  8
0
 10
1.04315807
 20
167.58932601
  0
SEQEND
  0
POLYLINE
  8
0
 62
256
 66
   1
 39
0.000000
 70
    1
  0
VERTEX
  8
0
 10
-80.25794661
 20
-85.35981501
  0
VERTEX
  8
0
 10
-80.25794661
 20
-115.05266144
  0
VERTEX
  8
0
 10
-105.24447838
 20
-97.54950986
  0
VERTEX
  8
0
 10
-83.69359473
 20
-106.30108565
  0
VERTEX
  8
0
 10
-80.25794661
 20
-85.35981501
  0
SEQEND
  0
POLYLINE
  8
0
 62
256
 66
   1
 39
0.000000
 70
    0
  0
VERTEX
  8
0
 10
-125.99398677
 20
-162.97797287
  0
VERTEX
  8
0
 10
-125.99398677
 20
0.12745253
  0
VERTEX
  8
0
 10
-113.48548599
 20
0.12745253
  0
VERTEX
  8
0
 10
-54.47512134
 20
0.12745253
  0
VERTEX
  8
0
 10
-46.00148288
 20
0.12745253
  0
VERTEX
  8
0
 10
-46.00148288
 20
-24.72683571
  0
VERTEX
  8
0
 10
-45.93616183
 20
-50.74108175
  0
VERTEX
  8
0
 10
-45.93616183
 20
-100.72527178
  0
VERTEX
  8
0
 10
-1.03287897
 20
-100.72527178
  0
VERTEX
  8
0
 10
43.87040389
 20
-100.72527178
  0
VERTEX
  8
0
 10
43.87040389
 20
-50.74108175
  0
VERTEX
  8
0
 10
43.93572494
 20
-24.72683571
  0
VERTEX
  8
0
 10
43.93572494
 20
0.12745253
  0
VERTEX
  8
0
 10
52.40936340
 20
0.12745253
  0
VERTEX
  8
0
 10
111.41972805
 20
0.12745253
  0
VERTEX
  8
0
 10
123.92822883
 20
0.12745253
  0
VERTEX
  8
0
 10
123.92822883
 20
-12.08920131
  0
VERTEX
  8
0
 10
124.02729099
 20
-50.74108175
  0
VERTEX
  8
0
 10
124.06917313
 20
-164.69942175
  0
SEQEND
  0
POLYLINE
  8
0
 62
256
 66
   1
 39
0.000000
 70
    0
  0
VERTEX
  8
0
 10
65.12180264
 20
-164.69942175
  0
VERTEX
  8
0
 10
65.21812050
 20
-162.97797287
  0
VERTEX
  8
0
 10
44.80739883
 20
-141.54671512
  0
VERTEX
  8
0
 10
29.49935758
 20
-141.54671512
  0
VERTEX
  8
0
 10
24.39667716
 20
-132.70861338
  0
VERTEX
  8
0
 10
19.29399675
 20
-141.54671512
  0
VERTEX
  8
0
 10
14.19131633
 20
-132.70861338
  0
VERTEX
  8
0
 10
9.08863591
 20
-141.54671512
  0
VERTEX
  8
0
 10
3.98595550
 20
-132.70861338
  0
VERTEX
  8
0
 10
-1.03287897
 20
-141.40148967
  0
VERTEX
  8
0
 10
-6.05171344
 20
-132.70861338
  0
VERTEX
  8
0
 10
-11.15439386
 20
-141.54671512
  0
VERTEX
  8
0
 10
-16.25707427
 20
-132.70861338
  0
VERTEX
  8
0
 10
-21.35975469
 20
-141.54671512
  0
VERTEX
  8
0
 10
-26.46243511
 20
-132.70861338
  0
VERTEX
  8
0
 10
-31.56511552
 20
-141.54671512
  0
VERTEX
  8
0
 10
-46.87315678
 20
-141.54671512
  0
VERTEX
  8
0
 10
-67.28387844
 20
-162.97797287
  0
SEQEND
  0
POLYLINE
  8
0
 62
256
 66
   1
 39
0.000000
 70
    0
  0
VERTEX
  8
0
 10
65.12180264
 20
-164.69942175
  0
VERTEX
  8
0
 10
124.06917313
 20
-164.69942175
  0
SEQEND
  0
POLYLINE
  8
0
 62
256
 66
   1
 39
0.000000
 70
    0
  0
VERTEX
  8
0
 10
-125.99398677
 20
-162.97797287
  0
VERTEX
  8
0
 10
-107.85745514
 20
-162.97797287
  0
VERTEX
  8
0
 10
-107.55745514
 20
-162.97797287
  0
VERTEX
  8
0
 10
-67.28387844
 20
-162.97797287
  0
SEQEND
  0
ENDSEC
  0
EOF
